<svg width="37" height="38" viewBox="0 0 37 38" fill="none" xmlns="http://www.w3.org/2000/svg">
<g clip-path="url(#clip0_2_195)">
<path d="M36.9957 18.691C36.9957 8.47488 28.714 0.193115 18.4979 0.193115C8.28176 0.193115 0 8.47488 0 18.691C0 27.9239 6.76441 35.5765 15.6076 36.964V24.0381H10.9108V18.691H15.6076V14.6157C15.6076 9.97964 18.3692 7.41884 22.5945 7.41884C24.6184 7.41884 26.7352 7.78014 26.7352 7.78014V12.3323H24.4026C22.1048 12.3323 21.3881 13.7582 21.3881 15.2211V18.691H26.5183L25.6983 24.0381H21.3881V36.964C30.2313 35.5765 36.9957 27.9239 36.9957 18.691Z" fill="white"/>
</g>
<defs>
<clipPath id="clip0_2_195">
<rect width="36.9957" height="36.9957" fill="white" transform="translate(0 0.193604)"/>
</clipPath>
</defs>
</svg>
