<svg width="50" height="52" viewBox="0 0 50 52" fill="none" xmlns="http://www.w3.org/2000/svg">
<path d="M32.2406 44.5547H17.7896C12.1231 44.5547 7.51511 39.9446 7.51511 34.2801V18.8612C7.51511 13.1968 12.1252 8.58667 17.7896 8.58667H32.2406C37.9051 8.58667 42.5152 13.1968 42.5152 18.8612V34.2822C42.5131 39.9446 37.9051 44.5547 32.2406 44.5547ZM17.7896 11.2216C13.5762 11.2216 10.148 14.6499 10.148 18.8612V34.2822C10.148 38.4936 13.5762 41.9218 17.7896 41.9218H32.2406C36.452 41.9218 39.8803 38.4936 39.8803 34.2822V18.8612C39.8803 14.6499 36.452 11.2216 32.2406 11.2216H17.7896Z" fill="#A8A8A8"/>
<path d="M25.0128 36.0763C19.745 36.0763 15.4576 31.7889 15.4576 26.5211C15.4576 23.9211 16.5243 21.3951 18.3864 19.5865C20.2033 17.823 22.5772 16.8961 25.0601 16.9639C30.959 17.1366 34.6915 20.9018 34.5682 26.554C34.4531 31.8937 30.2541 36.0763 25.0128 36.0763ZM24.7929 20.1805C23.2452 20.1805 21.7716 20.7847 20.6288 21.8946C19.3874 23.101 18.6762 24.7843 18.6762 26.519C18.6762 30.0131 21.5187 32.8556 25.0128 32.8556C28.4885 32.8556 31.2714 30.0562 31.3495 26.4841C31.4318 22.6571 29.0455 20.3018 24.9655 20.1826C24.908 20.1805 24.8504 20.1805 24.7929 20.1805Z" fill="#A8A8A8"/>
<path d="M34.8007 18.9235C36.0312 18.9235 37.0287 17.926 37.0287 16.6955C37.0287 15.465 36.0312 14.4675 34.8007 14.4675C33.5702 14.4675 32.5728 15.465 32.5728 16.6955C32.5728 17.926 33.5702 18.9235 34.8007 18.9235Z" fill="#A8A8A8"/>
</svg>
