<svg width="110" height="30" viewBox="0 0 110 30" fill="none" xmlns="http://www.w3.org/2000/svg">
<path d="M0 0.959999H3.28L3.24 12.52L12.76 0.959999H17L7.16 13.04L13.04 22.4H9.12L4.92 15.72L3.24 17.76L3.28 29H0L0 0.959999ZM11.2 25.72H15.08L17.12 29H13.24L11.2 25.72ZM19.1219 0.999998H32.8019V4.28H19.1219V0.999998ZM19.1219 13.4H32.8019V16.68H19.1219V13.4ZM19.1219 25.72H32.8019V29H19.1219V25.72ZM46.0369 29C43.7702 29 41.8235 28.3733 40.1969 27.12C38.5702 25.84 37.3302 24.0933 36.4769 21.88C35.6235 19.6667 35.1969 17.1867 35.1969 14.44C35.2769 11.9067 35.7569 9.58667 36.6369 7.48C37.5435 5.37333 38.7969 3.70666 40.3969 2.48C41.9969 1.22667 43.8635 0.599998 45.9969 0.599998C48.1569 0.599998 50.0635 1.25333 51.7169 2.56C53.3702 3.86667 54.6502 5.62666 55.5569 7.84C56.4635 10.0267 56.9169 12.4133 56.9169 15C56.9169 16.7333 56.5435 18.6933 55.7969 20.88H52.5169C53.2635 18.96 53.6369 17.0133 53.6369 15.04C53.6369 13.2533 53.3169 11.5067 52.6769 9.8C52.0635 8.06667 51.1702 6.65333 49.9969 5.56C48.8502 4.44 47.5169 3.88 45.9969 3.88C44.4502 3.88 43.1035 4.4 41.9569 5.44C40.8369 6.45333 39.9702 7.77333 39.3569 9.4C38.7702 11.0267 38.4769 12.7333 38.4769 14.52C38.4769 16.36 38.7435 18.1467 39.2769 19.88C39.8369 21.5867 40.6769 22.9867 41.7969 24.08C42.9435 25.1733 44.3569 25.72 46.0369 25.72L58.0369 25.76V29.04L46.0369 29ZM68.6116 29C66.6116 29 65.0116 28.68 63.8116 28.04C62.6382 27.4 61.7849 26.3733 61.2516 24.96C60.7182 23.52 60.4516 21.6133 60.4516 19.24V0.999998H63.7316V19.24C63.8116 21.2667 64.1716 22.8533 64.8116 24C65.4782 25.1467 66.7449 25.72 68.6116 25.72C69.9982 25.72 71.0249 25.44 71.6916 24.88C72.3582 24.2933 72.7849 23.5733 72.9716 22.72C73.1582 21.8667 73.2916 20.7067 73.3716 19.24V0.999998H76.6516V19.24C76.6516 21.6667 76.3849 23.5867 75.8516 25C75.3182 26.4133 74.4649 27.44 73.2916 28.08C72.1449 28.6933 70.5849 29 68.6116 29ZM79.0656 0.999998H92.7456V4.28H79.0656V0.999998ZM79.0656 13.4H92.7456V16.68H79.0656V13.4ZM79.0656 25.72H92.7456V29H79.0656V25.72ZM95.5312 0.999998H98.8113V29H95.5312V0.999998ZM101.691 25.72H109.291V29H101.691V25.72Z" fill="black"/>
</svg>
