<svg width="194" height="55" viewBox="0 0 194 55" fill="none" xmlns="http://www.w3.org/2000/svg">
<g filter="url(#filter0_d_2_193)">
<path d="M4 1.136H9.248L9.184 19.632L24.416 1.136H31.2L15.456 20.464L24.864 35.44H18.592L11.872 24.752L9.184 28.016L9.248 46H4V1.136ZM21.92 40.752H28.128L31.392 46H25.184L21.92 40.752ZM34.595 1.2H56.483V6.448H34.595V1.2ZM34.595 21.04H56.483V26.288H34.595V21.04ZM34.595 40.752H56.483V46H34.595V40.752ZM77.659 46C74.0323 46 70.9177 44.9973 68.315 42.992C65.7123 40.944 63.7283 38.1493 62.363 34.608C60.9977 31.0667 60.315 27.0987 60.315 22.704C60.443 18.6507 61.211 14.9387 62.619 11.568C64.0697 8.19733 66.075 5.53066 68.635 3.568C71.195 1.56266 74.1817 0.559998 77.595 0.559998C81.051 0.559998 84.1017 1.60533 86.747 3.696C89.3923 5.78666 91.4403 8.60266 92.891 12.144C94.3417 15.6427 95.067 19.4613 95.067 23.6C95.067 26.3733 94.4697 29.5093 93.275 33.008H88.027C89.2217 29.936 89.819 26.8213 89.819 23.664C89.819 20.8053 89.307 18.0107 88.283 15.28C87.3017 12.5067 85.8723 10.2453 83.995 8.496C82.1603 6.704 80.027 5.808 77.595 5.808C75.1203 5.808 72.9657 6.64 71.131 8.304C69.339 9.92533 67.9523 12.0373 66.971 14.64C66.0323 17.2427 65.563 19.9733 65.563 22.832C65.563 25.776 65.9897 28.6347 66.843 31.408C67.739 34.1387 69.083 36.3787 70.875 38.128C72.7097 39.8773 74.971 40.752 77.659 40.752L96.859 40.816V46.064L77.659 46ZM113.779 46C110.579 46 108.019 45.488 106.099 44.464C104.221 43.44 102.856 41.7973 102.003 39.536C101.149 37.232 100.723 34.1813 100.723 30.384V1.2H105.971V30.384C106.099 33.6267 106.675 36.1653 107.699 38C108.765 39.8347 110.792 40.752 113.779 40.752C115.997 40.752 117.64 40.304 118.707 39.408C119.773 38.4693 120.456 37.3173 120.755 35.952C121.053 34.5867 121.267 32.7307 121.395 30.384V1.2H126.643V30.384C126.643 34.2667 126.216 37.3387 125.363 39.6C124.509 41.8613 123.144 43.504 121.267 44.528C119.432 45.5093 116.936 46 113.779 46ZM130.505 1.2H152.393V6.448H130.505V1.2ZM130.505 21.04H152.393V26.288H130.505V21.04ZM130.505 40.752H152.393V46H130.505V40.752ZM156.85 1.2H162.098V46H156.85V1.2ZM166.706 40.752H178.866V46H166.706V40.752ZM186.087 46.064C185.148 46.064 184.338 45.744 183.655 45.104C183.015 44.464 182.695 43.6747 182.695 42.736C182.695 41.7973 183.015 41.008 183.655 40.368C184.338 39.728 185.148 39.408 186.087 39.408C186.983 39.408 187.751 39.728 188.391 40.368C189.074 41.008 189.415 41.7973 189.415 42.736C189.415 43.6747 189.074 44.464 188.391 45.104C187.751 45.744 186.983 46.064 186.087 46.064Z" fill="white"/>
</g>
<defs>
<filter id="filter0_d_2_193" x="0" y="0.560059" width="193.415" height="53.5039" filterUnits="userSpaceOnUse" color-interpolation-filters="sRGB">
<feFlood flood-opacity="0" result="BackgroundImageFix"/>
<feColorMatrix in="SourceAlpha" type="matrix" values="0 0 0 0 0 0 0 0 0 0 0 0 0 0 0 0 0 0 127 0" result="hardAlpha"/>
<feOffset dy="4"/>
<feGaussianBlur stdDeviation="2"/>
<feComposite in2="hardAlpha" operator="out"/>
<feColorMatrix type="matrix" values="0 0 0 0 0 0 0 0 0 0 0 0 0 0 0 0 0 0 0.25 0"/>
<feBlend mode="normal" in2="BackgroundImageFix" result="effect1_dropShadow_2_193"/>
<feBlend mode="normal" in="SourceGraphic" in2="effect1_dropShadow_2_193" result="shape"/>
</filter>
</defs>
</svg>
