<svg width="36" height="38" viewBox="0 0 36 38" fill="none" xmlns="http://www.w3.org/2000/svg">
<g clip-path="url(#clip0_2_202)">
<path fill-rule="evenodd" clip-rule="evenodd" d="M35.0764 36.0126H28.0493V24.996C28.0493 22.3693 28.002 18.9905 24.397 18.9905C20.7405 18.9905 20.1836 21.8535 20.1836 24.809V36.0126H13.1646V13.3609H19.8999V16.4583H19.9965C20.9338 14.6763 23.2275 12.7978 26.6455 12.7978C33.761 12.7978 35.0743 17.488 35.0743 23.5881L35.0764 36.0126ZM5.24139 10.2656C2.98465 10.2656 1.16364 8.43639 1.16364 6.18376C1.16364 3.93114 2.98465 2.09985 5.24139 2.09985C7.48785 2.09985 9.31298 3.93114 9.31298 6.18376C9.31298 8.43639 7.48785 10.2656 5.24139 10.2656ZM8.75598 36.0126H1.72063V13.3609H8.75598V36.0126Z" fill="#A8A8A8"/>
</g>
<defs>
<clipPath id="clip0_2_202">
<rect width="34.9404" height="36.9957" fill="white" transform="translate(0.136383 0.193604)"/>
</clipPath>
</defs>
</svg>
