<svg width="40" height="32" viewBox="0 0 40 32" fill="none" xmlns="http://www.w3.org/2000/svg">
<g clip-path="url(#clip0_2_208)">
<path fill-rule="evenodd" clip-rule="evenodd" d="M35.2738 2.98876C36.9318 3.43191 38.2377 4.73757 38.6809 6.39566C39.4859 9.40094 39.4863 15.6714 39.4863 15.6714C39.4863 15.6714 39.4863 21.9417 38.6809 24.947C38.2375 26.6048 36.9318 27.9107 35.2738 28.3539C32.2685 29.1593 20.2177 29.1593 20.2177 29.1593C20.2177 29.1593 8.16701 29.1593 5.16172 28.3539C3.50363 27.9107 2.19765 26.6052 1.7545 24.947C0.949097 21.9417 0.949097 15.6714 0.949097 15.6714C0.949097 15.6714 0.949097 9.40094 1.7545 6.39566C2.19797 4.73788 3.50363 3.43191 5.16172 2.98876C8.16701 2.18335 20.2177 2.18335 20.2177 2.18335C20.2177 2.18335 32.2685 2.18335 35.2738 2.98876ZM26.3757 15.6717L16.364 21.4521V9.89079L26.3757 15.6717Z" fill="#A8A8A8"/>
</g>
<defs>
<clipPath id="clip0_2_208">
<rect width="39.0511" height="30.8298" fill="white" transform="translate(0.949158 0.276611)"/>
</clipPath>
</defs>
</svg>
